<?xml version="1.0" encoding="utf-8"?>
<!-- Generator: Adobe Illustrator 28.0.0, SVG Export Plug-In . SVG Version: 6.00 Build 0)  -->
<svg version="1.1" id="Layer_1" xmlns="http://www.w3.org/2000/svg" xmlns:xlink="http://www.w3.org/1999/xlink" x="0px" y="0px"
	 viewBox="0 0 2671.6 702.8" style="enable-background:new 0 0 2671.6 702.8;" xml:space="preserve">
<style type="text/css">
	.st0{fill:none;stroke:#525252;stroke-width:39;stroke-miterlimit:10;}
	.st1{fill:#F07F3C;}
	.st2{fill:none;}
	.st3{fill:#0099DA;}
</style>
<g>
	<path class="st0" d="M956.6,584.6"/>
</g>
<path class="st1" d="M1147.2,601.7c18.2,0,35.3-7.1,48.1-19.9c12.9-12.9,19.9-30,19.9-48.1c0-18.1-7.1-35.3-19.9-48.1l-2.6-2.6
	c-12.9-12.9-30-19.9-48.1-19.9H941.5v39h203.1c7.8,0,15.1,3,20.6,8.5l2.6,2.6c5.5,5.5,8.5,12.8,8.5,20.6s-3,15.1-8.5,20.6
	s-12.8,8.5-20.6,8.5H941.5v38l0,0l0,0v1h1.9l177.3,95.8h80.8l-181.9-95.8h127.6V601.7z"/>
<polygon class="st1" points="629.6,462.9 629.6,501.9 746,501.9 746,702.4 785,702.4 785,501.9 901.4,501.9 901.4,462.9 "/>
<g>
	<path class="st1" d="M2247.3,702.8H2083V585h165.9c6.5,0,12.4-2.9,16.4-8l3.6-4.7c3.2-4.1,2.8-9.9-0.9-13.6l-5.9-5.9
		c-4.4-4.4-10.3-6.9-16.6-6.9h-156.8v-39h156.8c16.7,0,32.4,6.5,44.2,18.3l5.9,5.9c17.5,17.5,19.3,45.5,4.1,65.1l-3.6,4.7
		c-1.2,1.6-2.6,3.1-3.9,4.6l9.2,13.3c12.1,18.6,10.3,43.1-4.4,59.7l-2.9,3.3C2282.2,695.2,2265.1,702.8,2247.3,702.8z M2122,663.8
		h125.3c6.7,0,13.1-2.9,17.6-7.9l2.9-3.3c3-3.4,3.4-8.5,1-12.3l-11.6-16.8c-2.7,0.4-5.5,0.6-8.3,0.6H2122V663.8z"/>
</g>
<g>
	<path class="st1" d="M2061.7,702h-254.6l94.3-174.9c5.8-10.7,16.9-17.5,29.1-17.6c12.1-0.2,23.5,6.2,29.6,16.8L2061.7,702z
		 M1872.4,663H1994l-63-108.8L1872.4,663z"/>
</g>
<g>
	<path class="st1" d="M1785.4,702l-170.7-2c-13.6-0.2-26.4-5.6-36-15.2c-9.6-9.7-15-22.5-15.1-36.1l-1-134.5l39-0.3l1,134.5
		c0.1,6.9,5.7,12.5,12.5,12.6l170.7,2L1785.4,702z"/>
</g>
<g>
	<path class="st1" d="M1561,702.8h-310.1l119.2-221.1c6.2-11.4,18-18.6,31-18.8c0.2,0,0.4,0,0.5,0c12.8,0,24.6,6.8,31,17.9
		L1561,702.8z M1320.5,661.3H1489l-87.2-150.7L1320.5,661.3z"/>
</g>
<g>
	<line class="st2" x1="0" y1="482.4" x2="271.8" y2="482.4"/>
	<rect y="462.9" class="st1" width="271.8" height="39"/>
</g>
<polygon class="st1" points="271.8,462.9 0,462.9 0,501.9 116.4,501.9 116.4,702.4 155.4,702.4 155.4,501.9 271.8,501.9 "/>
<g>
	<line class="st2" x1="312.5" y1="482.4" x2="584.3" y2="482.4"/>
	<rect x="312.5" y="462.9" class="st1" width="271.8" height="39"/>
</g>
<g>
	<line class="st2" x1="312.5" y1="683.3" x2="584.3" y2="683.3"/>
	<rect x="312.5" y="663.8" class="st1" width="271.8" height="39"/>
</g>
<g>
	<line class="st2" x1="312.5" y1="582.9" x2="584.3" y2="582.9"/>
	<rect x="312.5" y="563.4" class="st1" width="271.8" height="39"/>
</g>
<circle class="st3" cx="2247.4" cy="343.5" r="45"/>
<circle class="st3" cx="2626.6" cy="437.4" r="45"/>
<circle class="st3" cx="2448.1" cy="398.1" r="30.6"/>
<circle class="st3" cx="2465.1" cy="265.6" r="61.9"/>
<circle class="st3" cx="2478.6" cy="45" r="45"/>
</svg>
