<?xml version="1.0" encoding="utf-8"?>
<!-- Generator: Adobe Illustrator 28.0.0, SVG Export Plug-In . SVG Version: 6.00 Build 0)  -->
<svg version="1.1" id="Layer_1" xmlns="http://www.w3.org/2000/svg" xmlns:xlink="http://www.w3.org/1999/xlink" x="0px" y="0px"
	 viewBox="0 0 2861.1 482.3" style="enable-background:new 0 0 2861.1 482.3;" xml:space="preserve">
<style type="text/css">
	.st0{fill:none;stroke:#525252;stroke-width:39;stroke-miterlimit:10;}
	.st1{fill:#F07F3C;}
	.st2{fill:#FFFFFF;}
	.st3{fill:#231F20;}
	.st4{fill:#0099DA;}
</style>
<image style="display:none;overflow:visible;" width="560" height="200" xlink:href="2F6CFC1F.png"  transform="matrix(7.3371 0 0 7.3371 -630.2523 -661.8142)">
</image>
<g>
	<path class="st0" d="M956.6,262.4"/>
</g>
<path class="st1" d="M1147.2,279.5c18.2,0,35.3-7.1,48.1-19.9c12.9-12.9,19.9-30,19.9-48.1s-7.1-35.3-19.9-48.1l-2.6-2.6
	c-12.9-12.9-30-19.9-48.1-19.9H941.5v39h203.1c7.8,0,15.1,3,20.6,8.5l2.6,2.6c5.5,5.5,8.5,12.8,8.5,20.6s-3,15.1-8.5,20.6
	c-5.5,5.5-12.8,8.5-20.6,8.5H941.5v38h0l0,0v1h1.9l177.3,95.8h80.8l-181.9-95.8H1147.2z"/>
<polygon class="st1" points="629.6,140.7 629.6,179.7 746,179.7 746,380.2 785,380.2 785,179.7 901.4,179.7 901.4,140.7 "/>
<g>
	<path class="st1" d="M2232.6,380.6h-164.3V262.8h165.9c6.5,0,12.4-2.9,16.4-8l3.6-4.7c3.2-4.1,2.8-9.9-0.9-13.6l-5.9-5.9
		c-4.4-4.4-10.3-6.9-16.6-6.9H2074v-39h156.8c16.7,0,32.4,6.5,44.2,18.3l5.9,5.9c17.5,17.5,19.3,45.5,4.1,65.1l-3.6,4.7
		c-1.2,1.6-2.6,3.1-3.9,4.6l9.2,13.3c12.1,18.6,10.3,43.1-4.4,59.7l-2.9,3.3C2267.5,373,2250.4,380.6,2232.6,380.6z M2107.3,341.6
		h125.3c6.7,0,13.1-2.9,17.6-7.9l2.9-3.3c3-3.4,3.4-8.5,1-12.3l-11.6-16.8c-2.7,0.4-5.5,0.6-8.3,0.6h-126.9V341.6z"/>
</g>
<g>
	<path class="st1" d="M2061.7,379.8h-254.6l94.3-174.9c5.8-10.7,16.9-17.5,29.1-17.6c12.1-0.2,23.5,6.2,29.6,16.8L2061.7,379.8z
		 M1872.4,340.8h121.6l-63-108.8L1872.4,340.8z"/>
</g>
<g>
	<path class="st1" d="M1785.4,379.8l-170.7-2c-13.6-0.2-26.4-5.6-36-15.2c-9.6-9.7-15-22.5-15.1-36.1l-1-134.5l39-0.3l1,134.5
		c0.1,6.9,5.7,12.5,12.5,12.6l170.7,2L1785.4,379.8z"/>
</g>
<g>
	<path class="st1" d="M1561,380.6h-310.1l119.2-221.1c6.2-11.4,18-18.6,31-18.8c0.2,0,0.4,0,0.5,0c12.8,0,24.6,6.8,31,17.9
		L1561,380.6z M1320.5,339.1h168.5l-87.2-150.7L1320.5,339.1z"/>
</g>
<g>
	<line class="st2" x1="0" y1="160.2" x2="271.8" y2="160.2"/>
	<rect y="140.7" class="st1" width="271.8" height="39"/>
</g>
<polygon class="st1" points="271.8,140.7 0,140.7 0,179.7 116.4,179.7 116.4,380.2 155.4,380.2 155.4,179.7 271.8,179.7 "/>
<g>
	<line class="st3" x1="312.5" y1="160.2" x2="584.3" y2="160.2"/>
	<rect x="312.5" y="140.7" class="st1" width="271.8" height="39"/>
</g>
<g>
	<line class="st2" x1="312.5" y1="361.1" x2="584.3" y2="361.1"/>
	<rect x="312.5" y="341.6" class="st1" width="271.8" height="39"/>
</g>
<g>
	<line class="st2" x1="312.5" y1="260.7" x2="584.3" y2="260.7"/>
	<rect x="312.5" y="241.2" class="st1" width="271.8" height="39"/>
</g>
<circle class="st4" cx="2437" cy="343.5" r="45"/>
<circle class="st4" cx="2816.1" cy="437.4" r="45"/>
<circle class="st4" cx="2637.6" cy="398.1" r="30.6"/>
<circle class="st4" cx="2654.6" cy="265.6" r="61.9"/>
<circle class="st4" cx="2668.2" cy="45" r="45"/>
</svg>
